<svg xmlns="http://www.w3.org/2000/svg" viewBox="0 0 64 64">
  <defs>
    <linearGradient id="background" x1="12" x2="52" y1="4" y2="60" gradientUnits="userSpaceOnUse">
      <stop stop-color="#241b45" />
      <stop offset="1" stop-color="#090713" />
    </linearGradient>
    <linearGradient id="parchment" x1="18" x2="46" y1="13" y2="52" gradientUnits="userSpaceOnUse">
      <stop stop-color="#fff7df" />
      <stop offset="1" stop-color="#d9b15e" />
    </linearGradient>
    <linearGradient id="violet" x1="16" x2="48" y1="12" y2="53" gradientUnits="userSpaceOnUse">
      <stop stop-color="#8262d6" />
      <stop offset="1" stop-color="#34235f" />
    </linearGradient>
  </defs>

  <rect width="64" height="64" rx="15" fill="url(#background)" />
  <path
    fill="#d9b15e"
    fill-opacity=".16"
    d="M8 18C15 6 31 2 43 8c9 4 14 12 15 20 1 13-9 27-24 29C19 59 7 49 6 35c0-6 1-12 2-17Z"
  />

  <g transform="rotate(-12 28 34)">
    <rect x="15" y="13" width="28" height="40" rx="5" fill="#f6f0e0" />
    <rect x="18.5" y="16.5" width="21" height="33" rx="3" fill="#1a1626" />
    <path
      fill="url(#parchment)"
      d="M29 21 32 30l8 3-8 3-3 9-3-9-8-3 8-3 3-9Z"
    />
  </g>

  <g transform="rotate(13 37 32)">
    <rect x="23" y="11" width="27" height="41" rx="5" fill="#d9b15e" />
    <rect x="26.5" y="14.5" width="20" height="34" rx="3" fill="url(#violet)" />
    <circle cx="36.5" cy="31.5" r="6.5" fill="#0f0b1d" fill-opacity=".72" />
    <path
      fill="#f6f0e0"
      d="M36.5 20.5 39 29l7 2.5-7 2.5-2.5 8.5L34 34l-7-2.5 7-2.5 2.5-8.5Z"
    />
  </g>

  <path
    fill="#d9b15e"
    d="M32 6.5 35.5 16 45 19.5 35.5 23 32 32.5 28.5 23 19 19.5 28.5 16 32 6.5Z"
  />
  <path
    fill="#f6f0e0"
    d="M32 13.5 33.6 18 38 19.5 33.6 21 32 25.5 30.4 21 26 19.5 30.4 18 32 13.5Z"
  />
</svg>
